<svg xmlns="http://www.w3.org/2000/svg" width="113.655" height="112.854" viewBox="0 0 113.655 112.854">
  <g id="TPR-Logo-Header" transform="translate(-23.872 -59.916)">
    <g id="Symbol" transform="translate(7.704 10.48)">
      <path id="Path_114" data-name="Path 114" d="M81.21,43.79A40.19,40.19,0,1,0,121.4,83.98,40.19,40.19,0,0,0,81.21,43.79Zm0,67.868A27.693,27.693,0,1,1,108.9,83.98,27.693,27.693,0,0,1,81.21,111.658Z" transform="translate(8.425 5.646)" fill="#483b8b"/>
      <path id="Path_115" data-name="Path 115" d="M20.367,122.8a6.085,6.085,0,0,0,0,8.578l2.271,2.256a6.085,6.085,0,0,0,8.578,0l35.2-35.084A40.382,40.382,0,0,1,55.436,87.66Z" transform="translate(-2.43 26.883)" fill="#483b8b"/>
    </g>
  </g>
</svg>
